<?xml version="1.0" encoding="utf-8"?>
<!-- Generator: Adobe Illustrator 16.0.0, SVG Export Plug-In . SVG Version: 6.00 Build 0)  -->
<!DOCTYPE svg PUBLIC "-//W3C//DTD SVG 1.1//EN" "http://www.w3.org/Graphics/SVG/1.1/DTD/svg11.dtd">
<svg version="1.1" id="Layer_1" xmlns="http://www.w3.org/2000/svg" xmlns:xlink="http://www.w3.org/1999/xlink" x="0px" y="0px"
	 width="36px" height="34px" viewBox="0 0 36 34" enable-background="new 0 0 36 34" xml:space="preserve">
<g>
	<g>
		<rect x="1.193" y="21.677" fill="#3A1C0D" width="33.614" height="3.653"/>
		<path fill="#FFFFFF" d="M34.807,26.061H1.193c-0.403,0-0.73-0.328-0.73-0.729v-3.653c0-0.402,0.327-0.729,0.73-0.729h33.614
			c0.403,0,0.73,0.327,0.73,0.729v3.653C35.537,25.732,35.21,26.061,34.807,26.061z M1.924,24.6h32.151v-2.191H1.924V24.6z"/>
	</g>
	<g>
		<circle fill="#3A1C0D" cx="28.96" cy="26.207" r="2.923"/>
		<path fill="#FFFFFF" d="M28.96,29.859c-2.015,0-3.653-1.639-3.653-3.652c0-2.016,1.641-3.652,3.653-3.652
			c2.015,0,3.653,1.637,3.653,3.652S30.975,29.859,28.96,29.859z M28.96,24.016c-1.208,0-2.192,0.981-2.192,2.191
			c0,1.209,0.984,2.191,2.192,2.191c1.209,0,2.192-0.982,2.192-2.191C31.152,24.997,30.169,24.016,28.96,24.016z"/>
	</g>
	<g>
		<circle fill="#3A1C0D" cx="7.039" cy="26.207" r="2.923"/>
		<path fill="#FFFFFF" d="M7.039,29.859c-2.015,0-3.654-1.639-3.654-3.652c0-2.016,1.639-3.652,3.654-3.652s3.653,1.637,3.653,3.652
			S9.054,29.859,7.039,29.859z M7.039,24.016c-1.209,0-2.192,0.981-2.192,2.191c0,1.209,0.983,2.191,2.192,2.191
			s2.192-0.982,2.192-2.191C9.231,24.997,8.248,24.016,7.039,24.016z"/>
	</g>
	<g>
		<path fill="#3A1C0D" d="M20.922,9.985h5.833c4.042,0,7.32,3.278,7.32,7.322v4.37H20.922V9.985z"/>
		<path fill="#FFFFFF" d="M34.075,22.407H20.922c-0.402,0-0.73-0.328-0.73-0.73V9.985c0-0.404,0.328-0.73,0.73-0.73h5.833
			c4.438,0,8.052,3.611,8.052,8.052v4.37C34.807,22.079,34.479,22.407,34.075,22.407z M21.652,20.945h11.691v-3.639
			c0-3.634-2.955-6.591-6.59-6.591H21.65v10.23H21.652z"/>
	</g>
	<g>
		<rect x="1.193" y="4.87" fill="#3A1C0D" width="19.729" height="16.807"/>
		<path fill="#FFFFFF" d="M20.922,22.407H1.193c-0.403,0-0.73-0.328-0.73-0.73V4.87c0-0.404,0.327-0.731,0.73-0.731h19.729
			c0.404,0,0.73,0.327,0.73,0.731v16.807C21.652,22.079,21.326,22.407,20.922,22.407z M1.924,20.945h18.268V5.601H1.924V20.945z"/>
	</g>
	<path fill="#FBB216" d="M11.423,8.523H1.193c-0.403,0-0.73-0.327-0.73-0.73c0-0.404,0.327-0.731,0.73-0.731h10.23
		c0.404,0,0.731,0.327,0.731,0.731C12.154,8.196,11.827,8.523,11.423,8.523z"/>
	<path fill="#FBB216" d="M9.961,11.446H1.193c-0.403,0-0.73-0.327-0.73-0.73c0-0.403,0.327-0.731,0.73-0.731h8.769
		c0.404,0,0.731,0.327,0.731,0.731C10.693,11.12,10.365,11.446,9.961,11.446z"/>
	<path fill="#FBB216" d="M8.5,14.369H1.193c-0.403,0-0.73-0.328-0.73-0.731c0-0.403,0.327-0.73,0.73-0.73H8.5
		c0.404,0,0.73,0.327,0.73,0.73C9.23,14.041,8.904,14.369,8.5,14.369z"/>
	<g>
		<path fill="#FBB216" d="M26.607,9.985h-1.301v7.307h8.621C33.922,13.255,30.646,9.985,26.607,9.985z"/>
		<path fill="#FFFFFF" d="M33.93,18.021h-8.623c-0.402,0-0.73-0.328-0.73-0.729V9.985c0-0.404,0.328-0.73,0.73-0.73h1.301
			c4.433,0,8.045,3.604,8.054,8.036c0,0.194-0.077,0.382-0.214,0.52C34.311,17.945,34.123,18.021,33.93,18.021z M26.037,16.561
			h7.119c-0.371-3.283-3.17-5.845-6.549-5.845h-0.57V16.561z"/>
	</g>
</g>
</svg>
